<svg width="376" height="200" viewBox="0 0 376 200" fill="none" xmlns="http://www.w3.org/2000/svg">
<rect width="376" height="200" fill="#F2F2F2"/>
<path d="M195.639 107.16C193.746 107.16 192.306 106.667 191.319 105.68C190.346 104.693 189.859 103.247 189.859 101.34V92.76H191.879V101.48C191.879 102.8 192.193 103.8 192.819 104.48C193.459 105.147 194.399 105.48 195.639 105.48C196.866 105.48 197.793 105.14 198.419 104.46C199.059 103.78 199.379 102.787 199.379 101.48V92.76H201.419V101.34C201.419 103.247 200.926 104.693 199.939 105.68C198.966 106.667 197.533 107.16 195.639 107.16ZM216.326 92.76V107H214.746L206.586 96.24V107H204.646V92.76H206.206L214.386 103.54V92.76H216.326ZM219.646 92.76H224.626C226.933 92.76 228.72 93.38 229.986 94.62C231.253 95.86 231.886 97.6067 231.886 99.86C231.886 102.127 231.253 103.887 229.986 105.14C228.72 106.38 226.933 107 224.626 107H219.646V92.76ZM224.506 105.28C228.013 105.28 229.766 103.473 229.766 99.86C229.766 96.2733 228.013 94.48 224.506 94.48H221.706V105.28H224.506ZM234.705 92.76H243.945V94.44H236.745V98.92H243.545V100.6H236.745V105.32H243.945V107H234.705V92.76ZM257.941 107H255.761L253.981 102.26C253.795 101.753 253.521 101.407 253.161 101.22C252.801 101.02 252.308 100.92 251.681 100.92H248.561V107H246.521V92.76H252.381C253.941 92.76 255.135 93.1067 255.961 93.8C256.801 94.4933 257.221 95.4867 257.221 96.78C257.221 97.7133 256.975 98.5067 256.481 99.16C255.988 99.8133 255.288 100.273 254.381 100.54C255.208 100.687 255.808 101.273 256.181 102.3L257.941 107ZM252.141 99.26C253.181 99.26 253.955 99.06 254.461 98.66C254.968 98.2467 255.221 97.6333 255.221 96.82C255.221 96.0067 254.968 95.4067 254.461 95.02C253.968 94.62 253.195 94.42 252.141 94.42H248.561V99.26H252.141ZM285.879 92.76L280.859 107H279.139L275.299 96L271.439 107H269.719L264.719 92.76H266.819L270.639 104.08L274.579 92.76L276.099 92.78L279.979 104.14L283.859 92.76H285.879ZM296.174 103.48H288.974L287.454 107H285.354L291.694 92.76H293.434L299.794 107H297.694L296.174 103.48ZM295.474 101.84L292.574 95.06L289.674 101.84H295.474ZM305.577 101.28V107H303.497V101.24L297.837 92.76H300.197L304.557 99.48L308.897 92.76H311.257L305.577 101.28Z" fill="#828282"/>
<mask id="path-3-inside-1" fill="white">
<path d="M204.242 54.0605C204.84 54.0605 205.414 53.8229 205.837 53.3998C206.26 52.9768 206.498 52.403 206.498 51.8047V43.5972C206.497 43.048 206.295 42.518 205.931 42.1074C205.566 41.6968 205.063 41.4339 204.518 41.3684C204.506 41.3684 204.496 41.3543 204.485 41.353L113.255 31.5148C113.175 31.5062 113.094 31.5019 113.014 31.502H106.698C106.485 31.5019 106.274 31.5318 106.07 31.5909L72.13 41.4303C72.1197 41.4303 72.112 41.4458 72.1017 41.4496C71.64 41.5887 71.2352 41.8726 70.9472 42.2593C70.6591 42.646 70.503 43.115 70.502 43.5972V51.8047C70.502 52.403 70.7396 52.9768 71.1627 53.3998C71.5857 53.8229 72.1595 54.0605 72.7578 54.0605H103.512L103.189 61.1504H100.831C100.247 61.1503 99.6865 61.3764 99.266 61.7812C98.8456 62.186 98.5985 62.738 98.5764 63.3212L95.1591 153.318H90.8408C90.2425 153.318 89.6687 153.556 89.2456 153.979C88.8226 154.402 88.5849 154.976 88.5849 155.574V162.986H72.7578C72.1595 162.986 71.5857 163.224 71.1627 163.647C70.7396 164.07 70.502 164.644 70.502 165.242C70.502 165.84 70.7396 166.414 71.1627 166.837C71.5857 167.26 72.1595 167.498 72.7578 167.498H204.242C204.84 167.498 205.414 167.26 205.837 166.837C206.26 166.414 206.498 165.84 206.498 165.242C206.498 164.644 206.26 164.07 205.837 163.647C205.414 163.224 204.84 162.986 204.242 162.986H198.939V156.207C198.939 155.609 198.701 155.035 198.278 154.612C197.855 154.189 197.281 153.951 196.683 153.951H184.888V147.173C184.888 146.575 184.651 146.001 184.227 145.578C183.804 145.155 183.231 144.918 182.632 144.918H170.837V138.14C170.837 137.541 170.6 136.968 170.177 136.545C169.754 136.121 169.18 135.884 168.582 135.884H140.48C139.882 135.884 139.308 136.121 138.885 136.545C138.462 136.968 138.224 137.541 138.224 138.14V147.175C138.224 147.773 138.462 148.347 138.885 148.77C139.308 149.193 139.882 149.431 140.48 149.431H152.275V153.953H140.48C139.882 153.953 139.308 154.19 138.885 154.613C138.462 155.036 138.224 155.61 138.224 156.208V162.988H131.124V155.574C131.124 154.976 130.886 154.402 130.463 153.979C130.04 153.556 129.466 153.318 128.868 153.318H124.551L121.132 63.3212C121.11 62.738 120.863 62.186 120.443 61.7812C120.022 61.3764 119.462 61.1503 118.878 61.1504H116.521L116.198 54.0605H168.686V89.939H165.382C164.845 89.9389 164.325 90.1308 163.916 90.4801C163.507 90.8295 163.237 91.3132 163.153 91.8443L161.864 100.009C161.782 100.532 161.886 101.067 162.158 101.521L164.736 105.818C164.937 106.152 165.22 106.428 165.559 106.62C165.898 106.812 166.28 106.913 166.67 106.913H168.685V110.457C168.685 111.055 168.922 111.629 169.345 112.052C169.768 112.475 170.342 112.713 170.941 112.713C171.137 112.713 171.33 112.764 171.501 112.86C171.671 112.957 171.814 113.096 171.915 113.265C172.016 113.433 172.072 113.625 172.077 113.821C172.082 114.017 172.036 114.211 171.944 114.384C171.852 114.558 171.716 114.704 171.55 114.809C171.385 114.915 171.195 114.975 170.999 114.985C170.803 114.995 170.607 114.954 170.432 114.867C170.256 114.779 170.106 114.647 169.997 114.484C169.833 114.234 169.621 114.019 169.374 113.852C169.126 113.685 168.848 113.568 168.555 113.509C168.262 113.45 167.96 113.45 167.667 113.509C167.374 113.568 167.095 113.684 166.848 113.852C166.6 114.019 166.388 114.234 166.224 114.484C166.06 114.734 165.948 115.014 165.893 115.307C165.838 115.601 165.842 115.903 165.905 116.195C165.968 116.487 166.088 116.764 166.259 117.009C166.748 117.737 167.4 118.34 168.164 118.772C168.927 119.204 169.78 119.452 170.656 119.496C171.531 119.541 172.405 119.381 173.209 119.03C174.012 118.678 174.722 118.144 175.283 117.471C175.844 116.797 176.241 116.002 176.442 115.148C176.642 114.295 176.641 113.406 176.439 112.553C176.236 111.7 175.838 110.905 175.276 110.233C174.713 109.56 174.002 109.028 173.198 108.678V106.912H175.213C175.602 106.912 175.985 106.811 176.324 106.619C176.662 106.427 176.946 106.15 177.146 105.816L179.724 101.52C179.997 101.066 180.101 100.531 180.018 100.008L178.729 91.843C178.646 91.3119 178.375 90.8282 177.966 90.4789C177.558 90.1296 177.038 89.9377 176.5 89.9377H173.198V54.0605H204.242ZM175.433 99.9022L173.934 102.4H167.95L166.451 99.9022L167.311 94.4507H174.574L175.433 99.9022ZM104.094 41.3414H88.6404L104.301 36.8013L104.094 41.3414ZM108.809 36.0137H110.921L111.12 41.3414H108.594L108.809 36.0137ZM115.618 41.3414L115.387 36.2831L162.287 41.3414H115.618ZM75.0124 45.8531H201.985V49.5488H75.0137L75.0124 45.8531ZM116.947 72.0211L113.76 69.7704L116.781 67.637L116.947 72.0211ZM105.938 69.7704L102.759 72.0146L102.926 67.6421L105.938 69.7704ZM109.849 72.5328L115.847 76.7687L109.849 82.5695L103.85 76.7687L109.849 72.5328ZM106.606 85.707L102.075 90.0898L102.396 81.6388L106.606 85.707ZM113.326 121.672L118.661 117.121L119.02 126.541L113.326 121.672ZM118.133 131.719L109.851 139.948L101.568 131.719L109.851 124.646L118.133 131.719ZM109.852 106.622L117.191 112.443L109.852 118.707L102.513 112.44L109.852 106.622ZM101.412 107.558L101.693 100.151L106.222 103.742L101.412 107.558ZM113.482 103.742L118.017 100.145L118.299 107.563L113.482 103.742ZM109.852 100.863L103.029 95.4485L109.852 88.8511L116.676 95.4485L109.852 100.863ZM106.378 121.672L100.693 126.528L101.05 117.118L106.378 121.672ZM106.651 143.122L99.8036 149.926L100.301 136.814L106.651 143.122ZM109.852 146.302L116.908 153.313H102.793L109.852 146.302ZM113.053 143.122L119.41 136.805L119.909 149.933L113.053 143.122ZM117.635 90.095L113.098 85.7122L117.314 81.6349L117.635 90.095ZM109.851 67.0156L107.936 65.6621H111.765L109.851 67.0156ZM194.426 162.988H170.836V158.464H194.426V162.988ZM142.735 140.397H166.324V144.92H142.735V140.397ZM156.785 149.432H180.375V153.954H156.785V149.432ZM142.735 158.466H166.324V162.989H142.735V158.466ZM126.612 162.986H93.0966V157.83H126.612V162.986ZM112.006 61.1504H107.704L108.028 54.0605H111.688L112.006 61.1504Z"/>
</mask>
<path d="M204.242 54.0605C204.84 54.0605 205.414 53.8229 205.837 53.3998C206.26 52.9768 206.498 52.403 206.498 51.8047V43.5972C206.497 43.048 206.295 42.518 205.931 42.1074C205.566 41.6968 205.063 41.4339 204.518 41.3684C204.506 41.3684 204.496 41.3543 204.485 41.353L113.255 31.5148C113.175 31.5062 113.094 31.5019 113.014 31.502H106.698C106.485 31.5019 106.274 31.5318 106.07 31.5909L72.13 41.4303C72.1197 41.4303 72.112 41.4458 72.1017 41.4496C71.64 41.5887 71.2352 41.8726 70.9472 42.2593C70.6591 42.646 70.503 43.115 70.502 43.5972V51.8047C70.502 52.403 70.7396 52.9768 71.1627 53.3998C71.5857 53.8229 72.1595 54.0605 72.7578 54.0605H103.512L103.189 61.1504H100.831C100.247 61.1503 99.6865 61.3764 99.266 61.7812C98.8456 62.186 98.5985 62.738 98.5764 63.3212L95.1591 153.318H90.8408C90.2425 153.318 89.6687 153.556 89.2456 153.979C88.8226 154.402 88.5849 154.976 88.5849 155.574V162.986H72.7578C72.1595 162.986 71.5857 163.224 71.1627 163.647C70.7396 164.07 70.502 164.644 70.502 165.242C70.502 165.84 70.7396 166.414 71.1627 166.837C71.5857 167.26 72.1595 167.498 72.7578 167.498H204.242C204.84 167.498 205.414 167.26 205.837 166.837C206.26 166.414 206.498 165.84 206.498 165.242C206.498 164.644 206.26 164.07 205.837 163.647C205.414 163.224 204.84 162.986 204.242 162.986H198.939V156.207C198.939 155.609 198.701 155.035 198.278 154.612C197.855 154.189 197.281 153.951 196.683 153.951H184.888V147.173C184.888 146.575 184.651 146.001 184.227 145.578C183.804 145.155 183.231 144.918 182.632 144.918H170.837V138.14C170.837 137.541 170.6 136.968 170.177 136.545C169.754 136.121 169.18 135.884 168.582 135.884H140.48C139.882 135.884 139.308 136.121 138.885 136.545C138.462 136.968 138.224 137.541 138.224 138.14V147.175C138.224 147.773 138.462 148.347 138.885 148.77C139.308 149.193 139.882 149.431 140.48 149.431H152.275V153.953H140.48C139.882 153.953 139.308 154.19 138.885 154.613C138.462 155.036 138.224 155.61 138.224 156.208V162.988H131.124V155.574C131.124 154.976 130.886 154.402 130.463 153.979C130.04 153.556 129.466 153.318 128.868 153.318H124.551L121.132 63.3212C121.11 62.738 120.863 62.186 120.443 61.7812C120.022 61.3764 119.462 61.1503 118.878 61.1504H116.521L116.198 54.0605H168.686V89.939H165.382C164.845 89.9389 164.325 90.1308 163.916 90.4801C163.507 90.8295 163.237 91.3132 163.153 91.8443L161.864 100.009C161.782 100.532 161.886 101.067 162.158 101.521L164.736 105.818C164.937 106.152 165.22 106.428 165.559 106.62C165.898 106.812 166.28 106.913 166.67 106.913H168.685V110.457C168.685 111.055 168.922 111.629 169.345 112.052C169.768 112.475 170.342 112.713 170.941 112.713C171.137 112.713 171.33 112.764 171.501 112.86C171.671 112.957 171.814 113.096 171.915 113.265C172.016 113.433 172.072 113.625 172.077 113.821C172.082 114.017 172.036 114.211 171.944 114.384C171.852 114.558 171.716 114.704 171.55 114.809C171.385 114.915 171.195 114.975 170.999 114.985C170.803 114.995 170.607 114.954 170.432 114.867C170.256 114.779 170.106 114.647 169.997 114.484C169.833 114.234 169.621 114.019 169.374 113.852C169.126 113.685 168.848 113.568 168.555 113.509C168.262 113.45 167.96 113.45 167.667 113.509C167.374 113.568 167.095 113.684 166.848 113.852C166.6 114.019 166.388 114.234 166.224 114.484C166.06 114.734 165.948 115.014 165.893 115.307C165.838 115.601 165.842 115.903 165.905 116.195C165.968 116.487 166.088 116.764 166.259 117.009C166.748 117.737 167.4 118.34 168.164 118.772C168.927 119.204 169.78 119.452 170.656 119.496C171.531 119.541 172.405 119.381 173.209 119.03C174.012 118.678 174.722 118.144 175.283 117.471C175.844 116.797 176.241 116.002 176.442 115.148C176.642 114.295 176.641 113.406 176.439 112.553C176.236 111.7 175.838 110.905 175.276 110.233C174.713 109.56 174.002 109.028 173.198 108.678V106.912H175.213C175.602 106.912 175.985 106.811 176.324 106.619C176.662 106.427 176.946 106.15 177.146 105.816L179.724 101.52C179.997 101.066 180.101 100.531 180.018 100.008L178.729 91.843C178.646 91.3119 178.375 90.8282 177.966 90.4789C177.558 90.1296 177.038 89.9377 176.5 89.9377H173.198V54.0605H204.242ZM175.433 99.9022L173.934 102.4H167.95L166.451 99.9022L167.311 94.4507H174.574L175.433 99.9022ZM104.094 41.3414H88.6404L104.301 36.8013L104.094 41.3414ZM108.809 36.0137H110.921L111.12 41.3414H108.594L108.809 36.0137ZM115.618 41.3414L115.387 36.2831L162.287 41.3414H115.618ZM75.0124 45.8531H201.985V49.5488H75.0137L75.0124 45.8531ZM116.947 72.0211L113.76 69.7704L116.781 67.637L116.947 72.0211ZM105.938 69.7704L102.759 72.0146L102.926 67.6421L105.938 69.7704ZM109.849 72.5328L115.847 76.7687L109.849 82.5695L103.85 76.7687L109.849 72.5328ZM106.606 85.707L102.075 90.0898L102.396 81.6388L106.606 85.707ZM113.326 121.672L118.661 117.121L119.02 126.541L113.326 121.672ZM118.133 131.719L109.851 139.948L101.568 131.719L109.851 124.646L118.133 131.719ZM109.852 106.622L117.191 112.443L109.852 118.707L102.513 112.44L109.852 106.622ZM101.412 107.558L101.693 100.151L106.222 103.742L101.412 107.558ZM113.482 103.742L118.017 100.145L118.299 107.563L113.482 103.742ZM109.852 100.863L103.029 95.4485L109.852 88.8511L116.676 95.4485L109.852 100.863ZM106.378 121.672L100.693 126.528L101.05 117.118L106.378 121.672ZM106.651 143.122L99.8036 149.926L100.301 136.814L106.651 143.122ZM109.852 146.302L116.908 153.313H102.793L109.852 146.302ZM113.053 143.122L119.41 136.805L119.909 149.933L113.053 143.122ZM117.635 90.095L113.098 85.7122L117.314 81.6349L117.635 90.095ZM109.851 67.0156L107.936 65.6621H111.765L109.851 67.0156ZM194.426 162.988H170.836V158.464H194.426V162.988ZM142.735 140.397H166.324V144.92H142.735V140.397ZM156.785 149.432H180.375V153.954H156.785V149.432ZM142.735 158.466H166.324V162.989H142.735V158.466ZM126.612 162.986H93.0966V157.83H126.612V162.986ZM112.006 61.1504H107.704L108.028 54.0605H111.688L112.006 61.1504Z" fill="#F2F2F2" stroke="#868686" stroke-width="2" mask="url(#path-3-inside-1)"/>
</svg>
