<svg width="376" height="200" viewBox="0 0 376 200" fill="none" xmlns="http://www.w3.org/2000/svg">
<path d="M0 0H376V200H0V0Z" fill="#1C203C"/>
<path d="M233.99 63.8182C233.99 63.572 233.781 63.3636 233.533 63.3636H231.248C231 63.3636 230.79 63.572 230.79 63.8182V72.3598C230.79 72.4924 230.638 72.5492 230.581 72.3977L227.457 63.7614C227.381 63.553 227.229 63.3447 226.886 63.3447H224.162C223.914 63.3447 223.705 63.553 223.705 63.7992V78.7992C223.705 79.0455 223.914 79.2538 224.162 79.2538H226.448C226.695 79.2538 226.905 79.0455 226.905 78.7992V70.9583C226.905 70.8258 227.057 70.7689 227.114 70.9205L230.219 78.8939C230.295 79.0833 230.448 79.2727 230.829 79.2727H233.533C233.781 79.2727 233.99 79.0644 233.99 78.8182V63.8182ZM221.171 76.6591C221.171 76.4129 220.962 76.2045 220.714 76.2045H218.771C218.638 76.2045 218.543 76.1098 218.543 75.9773V66.6591C218.543 66.5265 218.638 66.4318 218.771 66.4318H220.486C220.733 66.4318 220.943 66.2235 220.943 65.9773V63.8182C220.943 63.572 220.733 63.3636 220.486 63.3636H213.4C213.152 63.3636 212.943 63.572 212.943 63.8182V65.9773C212.943 66.2235 213.152 66.4318 213.4 66.4318H215.114C215.248 66.4318 215.343 66.5265 215.343 66.6591V75.9773C215.343 76.1098 215.248 76.2045 215.114 76.2045H213.171C212.924 76.2045 212.714 76.4129 212.714 76.6591V78.8182C212.714 79.0644 212.924 79.2727 213.171 79.2727H220.714C220.962 79.2727 221.171 79.0644 221.171 78.8182V76.6591ZM200.714 66.7727H134.714C134.562 66.7727 134.429 66.9053 134.429 67.0568V98.3068C134.429 98.4583 134.562 98.5909 134.714 98.5909H200.429C200.581 98.5909 200.714 98.4583 200.714 98.3068V66.7727ZM245.286 53.7045V88.9318C245.286 89.8788 244.524 90.6364 243.571 90.6364H204.143V100.295C204.143 101.242 203.381 102 202.429 102H132.714C131.762 102 131 101.242 131 100.295V65.0682C131 64.1212 131.762 63.3636 132.714 63.3636H200.714V53.7045C200.714 52.7576 201.476 52 202.429 52H243.571C244.505 52 245.286 52.7765 245.286 53.7045ZM190.581 87.4545H185.171C185.038 87.4545 184.943 87.3598 184.943 87.2273V84.5C184.943 84.3674 185.038 84.2727 185.171 84.2727H190.314C190.562 84.2727 190.771 84.0644 190.771 83.8182V81.5455C190.771 81.2992 190.562 81.0909 190.314 81.0909H185.171C185.038 81.0909 184.943 80.9962 184.943 80.8636V78.1364C184.943 78.0038 185.038 77.9091 185.171 77.9091H190.505C190.752 77.9091 190.962 77.7008 190.962 77.4545V75.1818C190.962 74.9356 190.752 74.7273 190.505 74.7273H182.2C181.952 74.7273 181.743 74.9356 181.743 75.1818V90.1818C181.743 90.428 181.952 90.6364 182.2 90.6364H190.581C190.829 90.6364 191.038 90.428 191.038 90.1818V87.9091C191.038 87.6629 190.829 87.4545 190.581 87.4545ZM178.733 74.7273H176.448C176.2 74.7273 175.99 74.9356 175.99 75.1818V83.7235C175.99 83.8561 175.838 83.9129 175.781 83.7614L172.657 75.125C172.581 74.9167 172.429 74.7083 172.086 74.7083H169.381C169.133 74.7083 168.924 74.9167 168.924 75.1629V90.1629C168.924 90.4091 169.133 90.6174 169.381 90.6174H171.667C171.914 90.6174 172.124 90.4091 172.124 90.1629V82.322C172.124 82.1894 172.276 82.1326 172.333 82.2841L175.438 90.2576C175.514 90.447 175.667 90.6364 176.048 90.6364H178.752C179 90.6364 179.21 90.428 179.21 90.1818V75.1818C179.19 74.9356 179 74.7273 178.733 74.7273ZM165.857 74.7273H163.552C163.305 74.7273 163.095 74.9356 163.095 75.1818V85.8636C163.095 86.8674 162.276 87.6818 160.886 87.6818C159.533 87.6818 158.714 86.8674 158.714 85.8636V75.1818C158.714 74.9356 158.505 74.7273 158.257 74.7273H155.952C155.705 74.7273 155.495 74.9356 155.495 75.1818V85.8636C155.495 88.6098 157.781 90.8826 160.886 90.8826C164.048 90.8826 166.333 88.6098 166.333 85.8636V75.1818C166.314 74.9356 166.105 74.7273 165.857 74.7273ZM153.286 75.1818V77.4545C153.286 77.7008 153.076 77.9091 152.829 77.9091H149.971C149.838 77.9091 149.743 78.0038 149.743 78.1364V90.1818C149.743 90.428 149.533 90.6364 149.286 90.6364H147C146.752 90.6364 146.543 90.428 146.543 90.1818V78.1364C146.543 78.0038 146.448 77.9091 146.314 77.9091H143.457C143.21 77.9091 143 77.7008 143 77.4545V75.1818C143 74.9356 143.21 74.7273 143.457 74.7273H152.829C153.076 74.7273 153.286 74.9356 153.286 75.1818Z" fill="#FEC25A"/>
<path d="M0 152H376V200H0V152Z" fill="#FEC25A"/>
<path d="M25.3662 175.66C26.1928 175.887 26.8328 176.3 27.2862 176.9C27.7395 177.5 27.9662 178.24 27.9662 179.12C27.9662 180.347 27.5395 181.3 26.6862 181.98C25.8462 182.66 24.6662 183 23.1462 183H16.9862V168.76H22.9462C24.4128 168.76 25.5528 169.087 26.3662 169.74C27.1928 170.393 27.6062 171.307 27.6062 172.48C27.6062 173.24 27.4062 173.9 27.0062 174.46C26.6195 175.007 26.0728 175.407 25.3662 175.66ZM19.0262 174.94H22.6262C24.6128 174.94 25.6062 174.173 25.6062 172.64C25.6062 171.16 24.6128 170.42 22.6262 170.42H19.0262V174.94ZM22.9462 181.34C23.9862 181.34 24.7462 181.153 25.2262 180.78C25.7062 180.393 25.9462 179.8 25.9462 179C25.9462 178.187 25.6995 177.587 25.2062 177.2C24.7262 176.8 23.9728 176.6 22.9462 176.6H19.0262V181.34H22.9462ZM42.0976 183H39.9176L38.1376 178.26C37.9509 177.753 37.6776 177.407 37.3176 177.22C36.9576 177.02 36.4642 176.92 35.8376 176.92H32.7176V183H30.6776V168.76H36.5376C38.0976 168.76 39.2909 169.107 40.1176 169.8C40.9576 170.493 41.3776 171.487 41.3776 172.78C41.3776 173.713 41.1309 174.507 40.6376 175.16C40.1442 175.813 39.4442 176.273 38.5376 176.54C39.3642 176.687 39.9642 177.273 40.3376 178.3L42.0976 183ZM36.2976 175.26C37.3376 175.26 38.1109 175.06 38.6176 174.66C39.1242 174.247 39.3776 173.633 39.3776 172.82C39.3776 172.007 39.1242 171.407 38.6176 171.02C38.1242 170.62 37.3509 170.42 36.2976 170.42H32.7176V175.26H36.2976ZM50.6452 183.16C49.2986 183.16 48.1252 182.867 47.1252 182.28C46.1386 181.68 45.3719 180.833 44.8252 179.74C44.2919 178.647 44.0252 177.36 44.0252 175.88C44.0252 174.387 44.2919 173.093 44.8252 172C45.3586 170.907 46.1252 170.067 47.1252 169.48C48.1252 168.893 49.2986 168.6 50.6452 168.6C52.0052 168.6 53.1786 168.893 54.1652 169.48C55.1652 170.067 55.9319 170.907 56.4652 172C56.9986 173.093 57.2652 174.38 57.2652 175.86C57.2652 177.353 56.9986 178.647 56.4652 179.74C55.9319 180.833 55.1652 181.68 54.1652 182.28C53.1652 182.867 51.9919 183.16 50.6452 183.16ZM50.6452 181.48C52.0719 181.48 53.1786 180.993 53.9652 180.02C54.7652 179.047 55.1652 177.66 55.1652 175.86C55.1652 174.073 54.7652 172.7 53.9652 171.74C53.1786 170.767 52.0719 170.28 50.6452 170.28C49.2186 170.28 48.1119 170.767 47.3252 171.74C46.5386 172.7 46.1452 174.073 46.1452 175.86C46.1452 177.66 46.5386 179.047 47.3252 180.02C48.1252 180.993 49.2319 181.48 50.6452 181.48ZM79.8591 168.76L74.8391 183H73.1191L69.2791 172L65.4191 183H63.6991L58.6991 168.76H60.7991L64.6191 180.08L68.5591 168.76L70.0791 168.78L73.9591 180.14L77.8391 168.76H79.8591ZM86.529 183.16C85.4223 183.16 84.409 183.013 83.489 182.72C82.5823 182.427 81.7957 181.987 81.129 181.4L81.869 179.88C82.5623 180.44 83.2823 180.847 84.029 181.1C84.7757 181.353 85.6157 181.48 86.549 181.48C87.6157 181.48 88.4423 181.28 89.029 180.88C89.6157 180.48 89.909 179.913 89.909 179.18C89.909 178.567 89.6357 178.107 89.089 177.8C88.5423 177.48 87.6757 177.187 86.489 176.92C85.3557 176.68 84.429 176.407 83.709 176.1C82.989 175.78 82.4223 175.36 82.009 174.84C81.5957 174.307 81.389 173.627 81.389 172.8C81.389 171.973 81.609 171.247 82.049 170.62C82.489 169.98 83.109 169.487 83.909 169.14C84.7223 168.78 85.6557 168.6 86.709 168.6C87.709 168.6 88.6423 168.753 89.509 169.06C90.389 169.367 91.1223 169.8 91.709 170.36L90.969 171.88C90.3157 171.333 89.6423 170.933 88.949 170.68C88.2557 170.413 87.5157 170.28 86.729 170.28C85.7023 170.28 84.8957 170.5 84.309 170.94C83.7223 171.367 83.429 171.953 83.429 172.7C83.429 173.34 83.6823 173.827 84.189 174.16C84.709 174.493 85.5357 174.793 86.669 175.06C87.8557 175.327 88.8157 175.607 89.549 175.9C90.2823 176.193 90.869 176.593 91.309 177.1C91.749 177.607 91.969 178.26 91.969 179.06C91.969 179.887 91.749 180.607 91.309 181.22C90.869 181.833 90.2357 182.313 89.409 182.66C88.5957 182.993 87.6357 183.16 86.529 183.16ZM94.5252 168.76H103.765V170.44H96.5652V174.92H103.365V176.6H96.5652V181.32H103.765V183H94.5252V168.76ZM117.762 183H115.582L113.802 178.26C113.615 177.753 113.342 177.407 112.982 177.22C112.622 177.02 112.128 176.92 111.502 176.92H108.382V183H106.342V168.76H112.202C113.762 168.76 114.955 169.107 115.782 169.8C116.622 170.493 117.042 171.487 117.042 172.78C117.042 173.713 116.795 174.507 116.302 175.16C115.808 175.813 115.108 176.273 114.202 176.54C115.028 176.687 115.628 177.273 116.002 178.3L117.762 183ZM111.962 175.26C113.002 175.26 113.775 175.06 114.282 174.66C114.788 174.247 115.042 173.633 115.042 172.82C115.042 172.007 114.788 171.407 114.282 171.02C113.788 170.62 113.015 170.42 111.962 170.42H108.382V175.26H111.962ZM134.979 179.48H127.779L126.259 183H124.159L130.499 168.76H132.239L138.599 183H136.499L134.979 179.48ZM134.279 177.84L131.379 171.06L128.479 177.84H134.279ZM140.443 168.76H146.363C147.857 168.76 149.017 169.127 149.843 169.86C150.683 170.58 151.103 171.567 151.103 172.82C151.103 174.073 150.677 175.067 149.823 175.8C148.983 176.52 147.83 176.88 146.363 176.88H142.503V183H140.443V168.76ZM146.123 175.24C147.11 175.24 147.85 175.033 148.343 174.62C148.85 174.207 149.103 173.607 149.103 172.82C149.103 172.047 148.85 171.453 148.343 171.04C147.85 170.627 147.11 170.42 146.123 170.42H142.503V175.24H146.123ZM153.607 168.76H159.527C161.021 168.76 162.181 169.127 163.007 169.86C163.847 170.58 164.267 171.567 164.267 172.82C164.267 174.073 163.841 175.067 162.987 175.8C162.147 176.52 160.994 176.88 159.527 176.88H155.667V183H153.607V168.76ZM159.287 175.24C160.274 175.24 161.014 175.033 161.507 174.62C162.014 174.207 162.267 173.607 162.267 172.82C162.267 172.047 162.014 171.453 161.507 171.04C161.014 170.627 160.274 170.42 159.287 170.42H155.667V175.24H159.287ZM166.771 168.76H168.831V181.28H175.751V183H166.771V168.76ZM177.806 168.76H179.866V183H177.806V168.76ZM189.438 183.16C188.064 183.16 186.864 182.867 185.838 182.28C184.824 181.68 184.044 180.833 183.498 179.74C182.951 178.647 182.678 177.353 182.678 175.86C182.678 174.38 182.951 173.093 183.498 172C184.044 170.907 184.824 170.067 185.838 169.48C186.864 168.893 188.064 168.6 189.438 168.6C190.411 168.6 191.311 168.753 192.138 169.06C192.978 169.353 193.684 169.787 194.258 170.36L193.538 171.88C192.871 171.333 192.211 170.94 191.558 170.7C190.918 170.447 190.218 170.32 189.458 170.32C187.978 170.32 186.831 170.8 186.018 171.76C185.218 172.72 184.818 174.087 184.818 175.86C184.818 177.647 185.218 179.027 186.018 180C186.831 180.96 187.978 181.44 189.458 181.44C190.218 181.44 190.918 181.32 191.558 181.08C192.211 180.827 192.871 180.427 193.538 179.88L194.258 181.4C193.684 181.973 192.978 182.413 192.138 182.72C191.311 183.013 190.411 183.16 189.438 183.16ZM205.897 179.48H198.697L197.177 183H195.077L201.417 168.76H203.157L209.517 183H207.417L205.897 179.48ZM205.197 177.84L202.297 171.06L199.397 177.84H205.197ZM213.062 170.48H208.242V168.76H219.962V170.48H215.142V183H213.062V170.48ZM221.869 168.76H223.929V183H221.869V168.76ZM233.36 183.16C232.013 183.16 230.84 182.867 229.84 182.28C228.853 181.68 228.087 180.833 227.54 179.74C227.007 178.647 226.74 177.36 226.74 175.88C226.74 174.387 227.007 173.093 227.54 172C228.073 170.907 228.84 170.067 229.84 169.48C230.84 168.893 232.013 168.6 233.36 168.6C234.72 168.6 235.893 168.893 236.88 169.48C237.88 170.067 238.647 170.907 239.18 172C239.713 173.093 239.98 174.38 239.98 175.86C239.98 177.353 239.713 178.647 239.18 179.74C238.647 180.833 237.88 181.68 236.88 182.28C235.88 182.867 234.707 183.16 233.36 183.16ZM233.36 181.48C234.787 181.48 235.893 180.993 236.68 180.02C237.48 179.047 237.88 177.66 237.88 175.86C237.88 174.073 237.48 172.7 236.68 171.74C235.893 170.767 234.787 170.28 233.36 170.28C231.933 170.28 230.827 170.767 230.04 171.74C229.253 172.7 228.86 174.073 228.86 175.86C228.86 177.66 229.253 179.047 230.04 180.02C230.84 180.993 231.947 181.48 233.36 181.48ZM254.506 168.76V183H252.926L244.766 172.24V183H242.826V168.76H244.386L252.566 179.54V168.76H254.506ZM274.578 183H272.398L270.618 178.26C270.431 177.753 270.158 177.407 269.798 177.22C269.438 177.02 268.945 176.92 268.318 176.92H265.198V183H263.158V168.76H269.018C270.578 168.76 271.771 169.107 272.598 169.8C273.438 170.493 273.858 171.487 273.858 172.78C273.858 173.713 273.611 174.507 273.118 175.16C272.625 175.813 271.925 176.273 271.018 176.54C271.845 176.687 272.445 177.273 272.818 178.3L274.578 183ZM268.778 175.26C269.818 175.26 270.591 175.06 271.098 174.66C271.605 174.247 271.858 173.633 271.858 172.82C271.858 172.007 271.605 171.407 271.098 171.02C270.605 170.62 269.831 170.42 268.778 170.42H265.198V175.26H268.778ZM277.103 168.76H286.343V170.44H279.143V174.92H285.943V176.6H279.143V181.32H286.343V183H277.103V168.76ZM288.92 168.76H293.9C296.206 168.76 297.993 169.38 299.26 170.62C300.526 171.86 301.16 173.607 301.16 175.86C301.16 178.127 300.526 179.887 299.26 181.14C297.993 182.38 296.206 183 293.9 183H288.92V168.76ZM293.78 181.28C297.286 181.28 299.04 179.473 299.04 175.86C299.04 172.273 297.286 170.48 293.78 170.48H290.98V181.28H293.78ZM303.978 168.76H313.218V170.44H306.018V174.92H312.818V176.6H306.018V181.32H313.218V183H303.978V168.76ZM320.259 183.16C319.153 183.16 318.139 183.013 317.219 182.72C316.313 182.427 315.526 181.987 314.859 181.4L315.599 179.88C316.293 180.44 317.013 180.847 317.759 181.1C318.506 181.353 319.346 181.48 320.279 181.48C321.346 181.48 322.173 181.28 322.759 180.88C323.346 180.48 323.639 179.913 323.639 179.18C323.639 178.567 323.366 178.107 322.819 177.8C322.273 177.48 321.406 177.187 320.219 176.92C319.086 176.68 318.159 176.407 317.439 176.1C316.719 175.78 316.153 175.36 315.739 174.84C315.326 174.307 315.119 173.627 315.119 172.8C315.119 171.973 315.339 171.247 315.779 170.62C316.219 169.98 316.839 169.487 317.639 169.14C318.453 168.78 319.386 168.6 320.439 168.6C321.439 168.6 322.373 168.753 323.239 169.06C324.119 169.367 324.853 169.8 325.439 170.36L324.699 171.88C324.046 171.333 323.373 170.933 322.679 170.68C321.986 170.413 321.246 170.28 320.459 170.28C319.433 170.28 318.626 170.5 318.039 170.94C317.453 171.367 317.159 171.953 317.159 172.7C317.159 173.34 317.413 173.827 317.919 174.16C318.439 174.493 319.266 174.793 320.399 175.06C321.586 175.327 322.546 175.607 323.279 175.9C324.013 176.193 324.599 176.593 325.039 177.1C325.479 177.607 325.699 178.26 325.699 179.06C325.699 179.887 325.479 180.607 325.039 181.22C324.599 181.833 323.966 182.313 323.139 182.66C322.326 182.993 321.366 183.16 320.259 183.16ZM328.256 168.76H330.316V183H328.256V168.76ZM345.167 175.44V182.16C344.567 182.467 343.807 182.713 342.887 182.9C341.98 183.073 341.053 183.16 340.107 183.16C338.667 183.16 337.42 182.873 336.367 182.3C335.313 181.713 334.507 180.873 333.947 179.78C333.4 178.687 333.127 177.38 333.127 175.86C333.127 174.367 333.4 173.073 333.947 171.98C334.507 170.887 335.3 170.053 336.327 169.48C337.367 168.893 338.587 168.6 339.987 168.6C340.987 168.6 341.907 168.753 342.747 169.06C343.6 169.353 344.327 169.78 344.927 170.34L344.187 171.88C343.507 171.32 342.84 170.92 342.187 170.68C341.533 170.44 340.807 170.32 340.007 170.32C338.46 170.32 337.28 170.793 336.467 171.74C335.667 172.687 335.267 174.06 335.267 175.86C335.267 177.713 335.68 179.12 336.507 180.08C337.333 181.027 338.553 181.5 340.167 181.5C341.247 181.5 342.287 181.34 343.287 181.02V177.02H339.967V175.44H345.167ZM360.014 168.76V183H358.434L350.274 172.24V183H348.334V168.76H349.894L358.074 179.54V168.76H360.014Z" fill="#1C203C"/>
</svg>
