<svg width="376" height="200" viewBox="0 0 376 200" fill="none" xmlns="http://www.w3.org/2000/svg">
<rect width="376" height="200" fill="#249322"/>
<path d="M0 0H376V200H0V0Z" fill="#128C7E"/>
<path d="M0 152H376V200H0V152Z" fill="#075E54"/>
<path d="M61.5195 183H59.3395L57.5595 178.26C57.3728 177.753 57.0995 177.407 56.7395 177.22C56.3795 177.02 55.8861 176.92 55.2595 176.92H52.1395V183H50.0995V168.76H55.9595C57.5195 168.76 58.7128 169.107 59.5395 169.8C60.3795 170.493 60.7995 171.487 60.7995 172.78C60.7995 173.713 60.5528 174.507 60.0595 175.16C59.5661 175.813 58.8661 176.273 57.9595 176.54C58.7861 176.687 59.3861 177.273 59.7595 178.3L61.5195 183ZM55.7195 175.26C56.7595 175.26 57.5328 175.06 58.0395 174.66C58.5461 174.247 58.7995 173.633 58.7995 172.82C58.7995 172.007 58.5461 171.407 58.0395 171.02C57.5461 170.62 56.7728 170.42 55.7195 170.42H52.1395V175.26H55.7195ZM73.268 179.48H66.068L64.548 183H62.448L68.788 168.76H70.528L76.888 183H74.788L73.268 179.48ZM72.568 177.84L69.668 171.06L66.768 177.84H72.568ZM78.7323 168.76H84.6523C86.1456 168.76 87.3056 169.127 88.1323 169.86C88.9723 170.58 89.3923 171.567 89.3923 172.82C89.3923 174.073 88.9656 175.067 88.1123 175.8C87.2723 176.52 86.1189 176.88 84.6523 176.88H80.7923V183H78.7323V168.76ZM84.4123 175.24C85.3989 175.24 86.1389 175.033 86.6323 174.62C87.1389 174.207 87.3923 173.607 87.3923 172.82C87.3923 172.047 87.1389 171.453 86.6323 171.04C86.1389 170.627 85.3989 170.42 84.4123 170.42H80.7923V175.24H84.4123ZM91.8963 168.76H93.9563V183H91.8963V168.76ZM97.2674 168.76H102.247C104.554 168.76 106.341 169.38 107.607 170.62C108.874 171.86 109.507 173.607 109.507 175.86C109.507 178.127 108.874 179.887 107.607 181.14C106.341 182.38 104.554 183 102.247 183H97.2674V168.76ZM102.127 181.28C105.634 181.28 107.387 179.473 107.387 175.86C107.387 172.273 105.634 170.48 102.127 170.48H99.3274V181.28H102.127ZM117.658 168.76H123.578C125.071 168.76 126.231 169.127 127.058 169.86C127.898 170.58 128.318 171.567 128.318 172.82C128.318 174.073 127.891 175.067 127.038 175.8C126.198 176.52 125.045 176.88 123.578 176.88H119.718V183H117.658V168.76ZM123.338 175.24C124.325 175.24 125.065 175.033 125.558 174.62C126.065 174.207 126.318 173.607 126.318 172.82C126.318 172.047 126.065 171.453 125.558 171.04C125.065 170.627 124.325 170.42 123.338 170.42H119.718V175.24H123.338ZM138.659 179.48H131.459L129.939 183H127.839L134.179 168.76H135.919L142.279 183H140.179L138.659 179.48ZM137.959 177.84L135.059 171.06L132.159 177.84H137.959ZM144.123 168.76H150.043C151.536 168.76 152.696 169.127 153.523 169.86C154.363 170.58 154.783 171.567 154.783 172.82C154.783 174.073 154.356 175.067 153.503 175.8C152.663 176.52 151.51 176.88 150.043 176.88H146.183V183H144.123V168.76ZM149.803 175.24C150.79 175.24 151.53 175.033 152.023 174.62C152.53 174.207 152.783 173.607 152.783 172.82C152.783 172.047 152.53 171.453 152.023 171.04C151.53 170.627 150.79 170.42 149.803 170.42H146.183V175.24H149.803ZM157.287 168.76H166.527V170.44H159.327V174.92H166.127V176.6H159.327V181.32H166.527V183H157.287V168.76ZM180.523 183H178.343L176.563 178.26C176.377 177.753 176.103 177.407 175.743 177.22C175.383 177.02 174.89 176.92 174.263 176.92H171.143V183H169.103V168.76H174.963C176.523 168.76 177.717 169.107 178.543 169.8C179.383 170.493 179.803 171.487 179.803 172.78C179.803 173.713 179.557 174.507 179.063 175.16C178.57 175.813 177.87 176.273 176.963 176.54C177.79 176.687 178.39 177.273 178.763 178.3L180.523 183ZM174.723 175.26C175.763 175.26 176.537 175.06 177.043 174.66C177.55 174.247 177.803 173.633 177.803 172.82C177.803 172.007 177.55 171.407 177.043 171.02C176.55 170.62 175.777 170.42 174.723 170.42H171.143V175.26H174.723ZM188.381 168.76H194.301C195.794 168.76 196.954 169.127 197.781 169.86C198.621 170.58 199.041 171.567 199.041 172.82C199.041 174.073 198.614 175.067 197.761 175.8C196.921 176.52 195.767 176.88 194.301 176.88H190.441V183H188.381V168.76ZM194.061 175.24C195.047 175.24 195.787 175.033 196.281 174.62C196.787 174.207 197.041 173.607 197.041 172.82C197.041 172.047 196.787 171.453 196.281 171.04C195.787 170.627 195.047 170.42 194.061 170.42H190.441V175.24H194.061ZM212.965 183H210.785L209.005 178.26C208.818 177.753 208.545 177.407 208.185 177.22C207.825 177.02 207.331 176.92 206.705 176.92H203.585V183H201.545V168.76H207.405C208.965 168.76 210.158 169.107 210.985 169.8C211.825 170.493 212.245 171.487 212.245 172.78C212.245 173.713 211.998 174.507 211.505 175.16C211.011 175.813 210.311 176.273 209.405 176.54C210.231 176.687 210.831 177.273 211.205 178.3L212.965 183ZM207.165 175.26C208.205 175.26 208.978 175.06 209.485 174.66C209.991 174.247 210.245 173.633 210.245 172.82C210.245 172.007 209.991 171.407 209.485 171.02C208.991 170.62 208.218 170.42 207.165 170.42H203.585V175.26H207.165ZM221.512 183.16C220.166 183.16 218.992 182.867 217.992 182.28C217.006 181.68 216.239 180.833 215.692 179.74C215.159 178.647 214.892 177.36 214.892 175.88C214.892 174.387 215.159 173.093 215.692 172C216.226 170.907 216.992 170.067 217.992 169.48C218.992 168.893 220.166 168.6 221.512 168.6C222.872 168.6 224.046 168.893 225.032 169.48C226.032 170.067 226.799 170.907 227.332 172C227.866 173.093 228.132 174.38 228.132 175.86C228.132 177.353 227.866 178.647 227.332 179.74C226.799 180.833 226.032 181.68 225.032 182.28C224.032 182.867 222.859 183.16 221.512 183.16ZM221.512 181.48C222.939 181.48 224.046 180.993 224.832 180.02C225.632 179.047 226.032 177.66 226.032 175.86C226.032 174.073 225.632 172.7 224.832 171.74C224.046 170.767 222.939 170.28 221.512 170.28C220.086 170.28 218.979 170.767 218.192 171.74C217.406 172.7 217.012 174.073 217.012 175.86C217.012 177.66 217.406 179.047 218.192 180.02C218.992 180.993 220.099 181.48 221.512 181.48ZM233.519 170.48H228.699V168.76H240.419V170.48H235.599V183H233.519V170.48ZM247.587 183.16C246.24 183.16 245.067 182.867 244.067 182.28C243.08 181.68 242.313 180.833 241.767 179.74C241.233 178.647 240.967 177.36 240.967 175.88C240.967 174.387 241.233 173.093 241.767 172C242.3 170.907 243.067 170.067 244.067 169.48C245.067 168.893 246.24 168.6 247.587 168.6C248.947 168.6 250.12 168.893 251.107 169.48C252.107 170.067 252.873 170.907 253.407 172C253.94 173.093 254.207 174.38 254.207 175.86C254.207 177.353 253.94 178.647 253.407 179.74C252.873 180.833 252.107 181.68 251.107 182.28C250.107 182.867 248.933 183.16 247.587 183.16ZM247.587 181.48C249.013 181.48 250.12 180.993 250.907 180.02C251.707 179.047 252.107 177.66 252.107 175.86C252.107 174.073 251.707 172.7 250.907 171.74C250.12 170.767 249.013 170.28 247.587 170.28C246.16 170.28 245.053 170.767 244.267 171.74C243.48 172.7 243.087 174.073 243.087 175.86C243.087 177.66 243.48 179.047 244.267 180.02C245.067 180.993 246.173 181.48 247.587 181.48ZM259.593 170.48H254.773V168.76H266.493V170.48H261.673V183H259.593V170.48ZM274.175 177.28V183H272.095V177.24L266.435 168.76H268.795L273.155 175.48L277.495 168.76H279.855L274.175 177.28ZM280.978 168.76H286.898C288.392 168.76 289.552 169.127 290.378 169.86C291.218 170.58 291.638 171.567 291.638 172.82C291.638 174.073 291.212 175.067 290.358 175.8C289.518 176.52 288.365 176.88 286.898 176.88H283.038V183H280.978V168.76ZM286.658 175.24C287.645 175.24 288.385 175.033 288.878 174.62C289.385 174.207 289.638 173.607 289.638 172.82C289.638 172.047 289.385 171.453 288.878 171.04C288.385 170.627 287.645 170.42 286.658 170.42H283.038V175.24H286.658ZM294.142 168.76H296.202V183H294.142V168.76ZM311.194 168.76V183H309.614L301.454 172.24V183H299.514V168.76H301.074L309.254 179.54V168.76H311.194ZM326.054 175.44V182.16C325.454 182.467 324.694 182.713 323.774 182.9C322.867 183.073 321.94 183.16 320.994 183.16C319.554 183.16 318.307 182.873 317.254 182.3C316.2 181.713 315.394 180.873 314.834 179.78C314.287 178.687 314.014 177.38 314.014 175.86C314.014 174.367 314.287 173.073 314.834 171.98C315.394 170.887 316.187 170.053 317.214 169.48C318.254 168.893 319.474 168.6 320.874 168.6C321.874 168.6 322.794 168.753 323.634 169.06C324.487 169.353 325.214 169.78 325.814 170.34L325.074 171.88C324.394 171.32 323.727 170.92 323.074 170.68C322.42 170.44 321.694 170.32 320.894 170.32C319.347 170.32 318.167 170.793 317.354 171.74C316.554 172.687 316.154 174.06 316.154 175.86C316.154 177.713 316.567 179.12 317.394 180.08C318.22 181.027 319.44 181.5 321.054 181.5C322.134 181.5 323.174 181.34 324.174 181.02V177.02H320.854V175.44H326.054Z" fill="white"/>
<path d="M131.283 115.32H135.723C136.843 115.32 137.713 115.595 138.333 116.145C138.963 116.685 139.278 117.425 139.278 118.365C139.278 119.305 138.958 120.05 138.318 120.6C137.688 121.14 136.823 121.41 135.723 121.41H132.828V126H131.283V115.32ZM135.543 120.18C136.283 120.18 136.838 120.025 137.208 119.715C137.588 119.405 137.778 118.955 137.778 118.365C137.778 117.785 137.588 117.34 137.208 117.03C136.838 116.72 136.283 116.565 135.543 116.565H132.828V120.18H135.543ZM149.721 126H148.086L146.751 122.445C146.611 122.065 146.406 121.805 146.136 121.665C145.866 121.515 145.496 121.44 145.026 121.44H142.686V126H141.156V115.32H145.551C146.721 115.32 147.616 115.58 148.236 116.1C148.866 116.62 149.181 117.365 149.181 118.335C149.181 119.035 148.996 119.63 148.626 120.12C148.256 120.61 147.731 120.955 147.051 121.155C147.671 121.265 148.121 121.705 148.401 122.475L149.721 126ZM145.371 120.195C146.151 120.195 146.731 120.045 147.111 119.745C147.491 119.435 147.681 118.975 147.681 118.365C147.681 117.755 147.491 117.305 147.111 117.015C146.741 116.715 146.161 116.565 145.371 116.565H142.686V120.195H145.371ZM156.132 126.12C155.122 126.12 154.242 125.9 153.492 125.46C152.752 125.01 152.177 124.375 151.767 123.555C151.367 122.735 151.167 121.77 151.167 120.66C151.167 119.54 151.367 118.57 151.767 117.75C152.167 116.93 152.742 116.3 153.492 115.86C154.242 115.42 155.122 115.2 156.132 115.2C157.152 115.2 158.032 115.42 158.772 115.86C159.522 116.3 160.097 116.93 160.497 117.75C160.897 118.57 161.097 119.535 161.097 120.645C161.097 121.765 160.897 122.735 160.497 123.555C160.097 124.375 159.522 125.01 158.772 125.46C158.022 125.9 157.142 126.12 156.132 126.12ZM156.132 124.86C157.202 124.86 158.032 124.495 158.622 123.765C159.222 123.035 159.522 121.995 159.522 120.645C159.522 119.305 159.222 118.275 158.622 117.555C158.032 116.825 157.202 116.46 156.132 116.46C155.062 116.46 154.232 116.825 153.642 117.555C153.052 118.275 152.757 119.305 152.757 120.645C152.757 121.995 153.052 123.035 153.642 123.765C154.242 124.495 155.072 124.86 156.132 124.86ZM163.231 115.32H166.966C168.696 115.32 170.036 115.785 170.986 116.715C171.936 117.645 172.411 118.955 172.411 120.645C172.411 122.345 171.936 123.665 170.986 124.605C170.036 125.535 168.696 126 166.966 126H163.231V115.32ZM166.876 124.71C169.506 124.71 170.821 123.355 170.821 120.645C170.821 117.955 169.506 116.61 166.876 116.61H164.776V124.71H166.876ZM178.8 126.12C177.38 126.12 176.3 125.75 175.56 125.01C174.83 124.27 174.465 123.185 174.465 121.755V115.32H175.98V121.86C175.98 122.85 176.215 123.6 176.685 124.11C177.165 124.61 177.87 124.86 178.8 124.86C179.72 124.86 180.415 124.605 180.885 124.095C181.365 123.585 181.605 122.84 181.605 121.86V115.32H183.135V121.755C183.135 123.185 182.765 124.27 182.025 125.01C181.295 125.75 180.22 126.12 178.8 126.12ZM190.251 126.12C189.221 126.12 188.321 125.9 187.551 125.46C186.791 125.01 186.206 124.375 185.796 123.555C185.386 122.735 185.181 121.765 185.181 120.645C185.181 119.535 185.386 118.57 185.796 117.75C186.206 116.93 186.791 116.3 187.551 115.86C188.321 115.42 189.221 115.2 190.251 115.2C190.981 115.2 191.656 115.315 192.276 115.545C192.906 115.765 193.436 116.09 193.866 116.52L193.326 117.66C192.826 117.25 192.331 116.955 191.841 116.775C191.361 116.585 190.836 116.49 190.266 116.49C189.156 116.49 188.296 116.85 187.686 117.57C187.086 118.29 186.786 119.315 186.786 120.645C186.786 121.985 187.086 123.02 187.686 123.75C188.296 124.47 189.156 124.83 190.266 124.83C190.836 124.83 191.361 124.74 191.841 124.56C192.331 124.37 192.826 124.07 193.326 123.66L193.866 124.8C193.436 125.23 192.906 125.56 192.276 125.79C191.656 126.01 190.981 126.12 190.251 126.12ZM198.213 116.61H194.598V115.32H203.388V116.61H199.773V126H198.213V116.61ZM208.817 115.32H213.257C214.377 115.32 215.247 115.595 215.867 116.145C216.497 116.685 216.812 117.425 216.812 118.365C216.812 119.305 216.492 120.05 215.852 120.6C215.222 121.14 214.357 121.41 213.257 121.41H210.362V126H208.817V115.32ZM213.077 120.18C213.817 120.18 214.372 120.025 214.742 119.715C215.122 119.405 215.312 118.955 215.312 118.365C215.312 117.785 215.122 117.34 214.742 117.03C214.372 116.72 213.817 116.565 213.077 116.565H210.362V120.18H213.077ZM224.568 123.36H219.168L218.028 126H216.453L221.208 115.32H222.513L227.283 126H225.708L224.568 123.36ZM224.043 122.13L221.868 117.045L219.693 122.13H224.043ZM236.969 120.33V125.37C236.519 125.6 235.949 125.785 235.259 125.925C234.579 126.055 233.884 126.12 233.174 126.12C232.094 126.12 231.159 125.905 230.369 125.475C229.579 125.035 228.974 124.405 228.554 123.585C228.144 122.765 227.939 121.785 227.939 120.645C227.939 119.525 228.144 118.555 228.554 117.735C228.974 116.915 229.569 116.29 230.339 115.86C231.119 115.42 232.034 115.2 233.084 115.2C233.834 115.2 234.524 115.315 235.154 115.545C235.794 115.765 236.339 116.085 236.789 116.505L236.234 117.66C235.724 117.24 235.224 116.94 234.734 116.76C234.244 116.58 233.699 116.49 233.099 116.49C231.939 116.49 231.054 116.845 230.444 117.555C229.844 118.265 229.544 119.295 229.544 120.645C229.544 122.035 229.854 123.09 230.474 123.81C231.094 124.52 232.009 124.875 233.219 124.875C234.029 124.875 234.809 124.755 235.559 124.515V121.515H233.069V120.33H236.969ZM239.345 115.32H246.275V116.58H240.875V119.94H245.975V121.2H240.875V124.74H246.275V126H239.345V115.32Z" fill="white"/>
<g clip-path="url(#clip0)">
<path d="M158.44 103C158.092 103 157.753 102.862 157.502 102.608C157.171 102.273 157.043 101.787 157.168 101.333L161.199 86.614C158.689 82.0763 157.366 76.9431 157.368 71.7323C157.375 54.7862 171.166 41 188.11 41C196.329 41.0033 204.052 44.2047 209.856 50.0134C215.659 55.8226 218.854 63.5447 218.852 71.7569C218.844 88.7034 205.054 102.491 188.11 102.491C188.11 102.491 188.097 102.491 188.097 102.491C183.148 102.489 178.241 101.282 173.872 98.9978L158.775 102.957C158.664 102.986 158.551 103 158.44 103V103Z" fill="#E5E5E5"/>
<path d="M158.439 101.681L162.613 86.4386C160.039 81.9775 158.684 76.9171 158.686 71.7328C158.693 55.5142 171.891 42.3193 188.109 42.3193C195.979 42.3226 203.367 45.3859 208.922 50.9458C214.477 56.5057 217.535 63.8962 217.532 71.7564C217.525 87.9745 204.325 101.171 188.109 101.171C188.108 101.171 188.11 101.171 188.109 101.171H188.097C183.172 101.169 178.334 99.9344 174.037 97.5905L158.439 101.681ZM174.759 92.2657L175.653 92.795C179.407 95.023 183.711 96.2013 188.1 96.2036H188.109C201.588 96.2036 212.558 85.2352 212.564 71.7545C212.566 65.2216 210.025 59.0785 205.408 54.4575C200.79 49.8365 194.651 47.2903 188.118 47.2874C174.629 47.2874 163.659 58.2545 163.654 71.7346C163.652 76.3542 164.944 80.8526 167.393 84.7456L167.975 85.6708L165.504 94.6923L174.759 92.2657Z" fill="white"/>
<path d="M159.463 100.654L163.493 85.9385C161.006 81.6321 159.699 76.7463 159.701 71.7422C159.707 56.0851 172.449 43.3471 188.104 43.3471C195.703 43.3504 202.835 46.3078 208.197 51.6751C213.56 57.0425 216.511 64.1771 216.508 71.7644C216.502 87.4219 203.76 100.161 188.106 100.161C188.104 100.161 188.106 100.161 188.106 100.161H188.093C183.34 100.159 178.669 98.9665 174.52 96.7055L159.463 100.654Z" fill="#128C7E"/>
<path d="M158.439 101.681L162.613 86.4386C160.039 81.9775 158.684 76.9171 158.686 71.7328C158.693 55.5142 171.891 42.3193 188.109 42.3193C195.979 42.3226 203.367 45.3859 208.922 50.9458C214.477 56.5057 217.535 63.8962 217.532 71.7564C217.525 87.9745 204.325 101.171 188.109 101.171C188.108 101.171 188.11 101.171 188.109 101.171H188.097C183.172 101.169 178.334 99.9344 174.037 97.5905L158.439 101.681ZM174.759 92.2657L175.653 92.795C179.407 95.023 183.711 96.2013 188.1 96.2036H188.109C201.588 96.2036 212.558 85.2352 212.564 71.7545C212.566 65.2216 210.025 59.0785 205.408 54.4575C200.79 49.8365 194.651 47.2903 188.118 47.2874C174.629 47.2874 163.659 58.2545 163.654 71.7346C163.652 76.3542 164.944 80.8526 167.393 84.7456L167.975 85.6708L165.504 94.6923L174.759 92.2657Z" fill="white"/>
<path fill-rule="evenodd" clip-rule="evenodd" d="M180.755 59.4361C180.205 58.2119 179.625 58.1873 179.101 58.166C178.672 58.1476 178.182 58.1485 177.692 58.1485C177.202 58.1485 176.406 58.333 175.732 59.0685C175.058 59.8041 173.158 61.5826 173.158 65.1999C173.158 68.8175 175.793 72.3127 176.16 72.8037C176.528 73.2942 181.246 80.9543 188.719 83.9013C194.929 86.3506 196.193 85.8634 197.541 85.7409C198.889 85.6183 201.89 83.9623 202.503 82.2457C203.116 80.5291 203.116 79.058 202.932 78.7501C202.748 78.444 202.258 78.26 201.523 77.8925C200.787 77.5249 197.173 75.7459 196.499 75.5009C195.825 75.2554 195.335 75.1333 194.845 75.8693C194.354 76.6044 192.947 78.26 192.518 78.7501C192.089 79.2415 191.66 79.303 190.924 78.935C190.189 78.5665 187.821 77.7908 185.013 75.2861C182.827 73.3377 181.351 70.931 180.922 70.195C180.494 69.4599 180.915 69.0966 181.245 68.695C181.84 67.9718 182.838 66.6714 183.083 66.1814C183.328 65.6904 183.205 65.2613 183.022 64.8933C182.838 64.5258 181.409 60.8901 180.755 59.4361V59.4361Z" fill="white"/>
</g>
<defs>
<clipPath id="clip0">
<rect width="62" height="62" fill="white" transform="translate(157 41)"/>
</clipPath>
</defs>
</svg>
